<svg width="44" height="44" viewBox="0 0 44 44" xmlns="http://www.w3.org/2000/svg" xmlns:xlink="http://www.w3.org/1999/xlink">
    <defs>
        <path d="M0 0h44v44H12C5.373 44 0 38.627 0 32V0z" id="qjecnck18a"/>
    </defs>
    <g fill="none" fill-rule="evenodd">
        <mask id="uphp7skxqb" fill="#fff">
            <use xlink:href="#qjecnck18a"/>
        </mask>
        <use fill-opacity=".8" fill="#000" xlink:href="#qjecnck18a"/>
        <g mask="url(#uphp7skxqb)" fill="#FFF">
            <path d="M15.24 22.254c-1.05 0-1.99.364-2.632 1.058-.652-.694-1.591-1.05-2.64-1.041-1.913 0-3.47 1.184-3.512 3.418v5.094c0 .465.38.838.838.846h.787c.067 0 .135-.059.135-.144V25.69c.034-1.1.804-1.684 1.743-1.692.948 0 1.718.584 1.752 1.684v5.06c0 .465.389.88.846.88h.787a.156.156 0 0 0 .135-.153v-5.762c.034-1.1.804-1.71 1.743-1.71.948 0 1.718.585 1.752 1.685v5.085c0 .466.39.863.846.863h.787c.068 0 .135-.076.135-.16v-5.814c-.034-2.233-1.59-3.41-3.503-3.401M36.935 22.508c.025-.034.017-.068-.026-.093-.017-.009-.025-.017-.042-.017h-1.405c-.33 0-.651.042-.939.431l-1.438 2.124c-.11.17-.28.364-.508.364-.237 0-.398-.195-.508-.364l-1.438-2.124c-.288-.397-.61-.431-.94-.431h-1.404c-.042 0-.068.034-.068.059 0 .017.009.034.017.042l2.776 4.104c.16.245.16.55 0 .795l-2.776 4.104c-.025.043-.017.076.026.102.016.008.025.017.042.017H29.7c.33 0 .652-.051.94-.44l1.446-2.133c.11-.169.28-.363.508-.363.237 0 .398.194.508.363l1.438 2.124c.288.398.61.44.94.44l1.404-.008c.042 0 .068-.034.068-.06 0-.016 0-.033-.017-.042l-2.776-4.104a.716.716 0 0 1 0-.795l2.776-4.095zM23.43 29.937c-1.472 0-2.547-1.092-2.547-2.962 0-1.861 1.075-2.961 2.547-2.961 1.472 0 2.547 1.091 2.547 2.961.008 1.862-1.066 2.962-2.547 2.962m4.23-7.54h-.55a.89.89 0 0 0-.735.415l-.203.364c-.796-.668-1.837-.94-2.691-.94-2.59 0-4.307 1.829-4.307 4.722 0 2.92 1.743 4.722 4.29 4.722.973 0 1.938-.322 2.547-.82a.833.833 0 0 0 .846.752h.804c.076 0 .144-.042.144-.11v-8.969c-.009-.076-.06-.135-.144-.135M13.09 17.676h1.71v3.774h2.622v-9.688H14.8v3.596H13.09v-3.596h-2.708v9.688h2.708zM20.477 19.19v-1.632h1.337c.39 0 .694.389.694.82 0 .432-.296.821-.694.821l-1.337-.008zm.008-5.28h1.337c.39 0 .694.39.694.822 0 .431-.296.82-.694.82h-1.337v-1.641zm4.087 1.998c-.059.279-.059 1.074.009 1.354-.203-.314-.686-.703-.999-.737.305-.033.821-.389.99-.617zm4.908-1.845a2.465 2.465 0 0 1 2.462 2.462 2.465 2.465 0 0 1-2.462 2.463 2.465 2.465 0 0 1-2.462-2.463 2.454 2.454 0 0 1 2.462-2.462zm-4.434 4.662c.39.787 1.718 2.767 4.434 2.767s4.916-2.259 4.916-4.967c0-2.775-2.2-4.916-4.916-4.924-2.716 0-4.087 1.988-4.434 2.792 0-1.21-1.184-2.631-2.58-2.64h-4.494v9.68h4.189c1.692.017 2.885-1.455 2.885-2.708z"/>
            <path d="M29.48 18.463a1.952 1.952 0 0 0 1.946-1.946 1.952 1.952 0 0 0-1.946-1.946 1.952 1.952 0 0 0-1.946 1.946 1.963 1.963 0 0 0 1.946 1.946M37.172 22.465h.126v.364h.102v-.364h.135v-.093h-.363zM37.942 22.372l-.119.212-.118-.212h-.11v.457h.11v-.262l.11.195h.008l.119-.195v.262h.101v-.457z"/>
        </g>
    </g>
</svg>
